<?xml version="1.0" encoding="utf-8"?>
<!-- Generator: Adobe Illustrator 23.0.5, SVG Export Plug-In . SVG Version: 6.00 Build 0)  -->
<svg version="1.1" id="Capa_1" xmlns="http://www.w3.org/2000/svg" xmlns:xlink="http://www.w3.org/1999/xlink" x="0px" y="0px"
	 viewBox="0 0 300 53" style="enable-background:new 0 0 300 53;" xml:space="preserve">
<style type="text/css">
	.st0{filter:url(#Adobe_OpacityMaskFilter);}
	.st1{fill-rule:evenodd;clip-rule:evenodd;fill:#FFFFFF;}
	.st2{mask:url(#c_1_);fill-rule:evenodd;clip-rule:evenodd;fill:#FFFFFF;}
</style>
<g transform="translate(1 2)">
	<defs>
		<filter id="Adobe_OpacityMaskFilter" filterUnits="userSpaceOnUse" x="-1" y="-1.7" width="300" height="52.9">
			<feColorMatrix  type="matrix" values="1 0 0 0 0  0 1 0 0 0  0 0 1 0 0  0 0 0 1 0"/>
		</filter>
	</defs>
	<mask maskUnits="userSpaceOnUse" x="-1" y="-1.7" width="300" height="52.9" id="c_1_">
		<g class="st0">
			<path id="b_1_" class="st1" d="M-1-1.7h189.6v52.9H-1V-1.7z"/>
		</g>
	</mask>
	<path class="st2" d="M1,46.4h-2v4.8h4.6v0h289.3v-0.1c3.4-0.2,6.1-3,6.1-6.6V4.9c0-3.5-2.7-6.4-6.1-6.6v0h-0.1c-0.1,0-0.2,0-0.2,0
		H4l0,0H3.8l0,0H-1v4.8h2c1.1,0,2,1,2,2.1v0.5C3,7,2.1,7.9,1,7.9h-2v4.8h2c1.1,0,2,1,2,2.1v0.5c0,1.2-0.9,2.1-2,2.1h-2v4.8h2
		c1.1,0,2,1,2,2.1V25c0,1.2-0.9,2.1-2,2.1h-2V32h2c1.1,0,2,1,2,2.1v0.5c0,1.2-0.9,2.1-2,2.1h-2v4.8h2c1.1,0,2,1,2,2.1v0.5
		C3,45.4,2.1,46.4,1,46.4"/>
</g>
</svg>
